Coordinates
version=1
nRows=13
nColumns=30
inDegrees=yes

Units are S.I. units (second, meters, Newtons, ...)
Angles are in degrees.

endheader
time	floatyaw	floatroll	floatpitch	floatx	floaty	floatz	pro_sup_l	deviation_l	flexion_l	cmc_flexion_l	cmc_abduction_l	mp_flexion_l	ip_flexion_l	2mcp_flexion_l	2mcp_abduction_l	2pm_flexion_l	2md_flexion_l	3mcp_flexion_l	3mcp_abduction_l	3pm_flexion_l	3md_flexion_l	4mcp_flexion_l	4mcp_abduction_l	4pm_flexion_l	4md_flexion_l	5mcp_flexion_l	5mcp_abduction_l	5pm_flexion_l	5md_flexion_l
-1.495000	3.029614	-4.103828	101.268469	-0.101753	-0.208783	-0.045388	83.555407	1.628136	0.123902	15.248348	3.045570	-23.220984	-36.188123	38.854995	7.461508	51.011055	33.933381	25.271117	4.679246	48.730394	30.320568	15.342928	-4.387777	61.655754	39.900713	8.751246	-8.945287	60.269534	40.191209
-1.485000	3.029614	-4.103828	101.268469	-0.101752	-0.208813	-0.045386	83.556056	1.632329	0.102071	15.249085	3.049117	-23.213480	-36.181753	38.883652	7.448121	51.013091	33.926446	25.274336	4.679063	48.717889	30.308258	15.350874	-4.394656	61.663067	39.901199	8.751755	-8.937389	60.257889	40.185028
-1.475000	3.029614	-4.103828	101.268469	-0.101753	-0.208838	-0.045382	83.566555	1.641860	0.081419	15.248949	3.038181	-23.207810	-36.176677	38.910646	7.434363	51.012786	33.917686	25.276236	4.678417	48.691831	30.288427	15.351133	-4.399408	61.666864	39.900688	8.749757	-8.927904	60.254050	40.182653
-1.465000	3.029614	-4.103828	101.268469	-0.101754	-0.208850	-0.045375	83.586647	1.655432	0.066722	15.245570	3.013019	-23.206886	-36.174694	38.933912	7.421145	51.012833	33.909247	25.280263	4.676366	48.658649	30.265269	15.342650	-4.398803	61.663307	39.897824	8.744115	-8.919186	60.261345	40.185899
-1.455000	3.029614	-4.103828	101.268469	-0.101753	-0.208845	-0.045363	83.612445	1.668608	0.061980	15.238909	2.979318	-23.211827	-36.176737	38.950899	7.409092	51.016183	33.903841	25.286981	4.673138	48.628243	30.245287	15.325243	-4.390892	61.651546	39.892906	8.738633	-8.916181	60.280297	40.194882
-1.445000	3.029614	-4.103828	101.268469	-0.101751	-0.208824	-0.045347	83.638352	1.675992	0.069188	15.230591	2.944517	-23.221585	-36.182452	38.959413	7.398620	51.023462	33.903043	25.293976	4.669840	48.609075	30.234208	15.301159	-4.376592	61.634517	39.887885	8.738369	-8.921905	60.307735	40.207866
-1.435000	3.029614	-4.103828	101.268469	-0.101748	-0.208792	-0.045327	83.659846	1.674271	0.087625	15.222488	2.913822	-23.233372	-36.190200	38.959435	7.390333	51.032223	33.906228	25.297439	4.667779	48.603812	30.234038	15.275570	-4.359986	61.617929	39.885401	8.745207	-8.934004	60.337660	40.221900
-1.425000	3.029614	-4.103828	101.268469	-0.101749	-0.208754	-0.045306	83.675370	1.664245	0.114024	15.215372	2.888222	-23.243697	-36.197514	38.954329	7.385349	51.038272	33.910735	25.294496	4.667770	48.608001	30.241909	15.254919	-4.346723	61.607602	39.887296	8.756199	-8.945294	60.363362	40.233785
-1.415000	3.029614	-4.103828	101.268469	-0.101755	-0.208716	-0.045290	83.686342	1.650455	0.143606	15.208369	2.865547	-23.249644	-36.201930	38.949904	7.385107	51.038055	33.913156	25.284935	4.669764	48.612774	30.251592	15.243984	-4.341245	61.606642	39.893491	8.765873	-8.947993	60.379677	40.240903
-1.405000	3.029614	-4.103828	101.268469	-0.101766	-0.208685	-0.045280	83.695631	1.638662	0.171420	15.199528	2.843360	-23.249934	-36.201927	38.951623	7.390588	51.030578	33.911011	25.271506	4.672908	48.610097	30.256863	15.243818	-4.344645	61.614296	39.902009	8.770320	-8.938343	60.384412	40.241719
-1.395000	3.029614	-4.103828	101.268469	-0.101781	-0.208662	-0.045277	83.705660	1.632854	0.193413	15.187105	2.821204	-23.245350	-36.197622	38.961938	7.401356	51.017691	33.903761	25.258819	4.675864	48.597241	30.254644	15.251703	-4.354451	61.627004	39.910078	8.769671	-8.918382	60.378545	40.236018
-1.385000	3.029614	-4.103828	101.268469	-0.101795	-0.208649	-0.045277	83.717196	1.633641	0.207096	15.170739	2.800509	-23.238306	-36.190806	38.979632	7.414980	51.002704	33.892645	25.251424	4.677200	48.577817	30.246110	15.262556	-4.366146	61.640410	39.915527	8.767329	-8.894346	60.365383	40.224930
-1.375000	3.029614	-4.103828	101.268469	-0.101805	-0.208643	-0.045277	83.729321	1.638793	0.211914	15.151765	2.782654	-23.231761	-36.184228	39.001390	7.427330	50.988423	33.879654	25.251725	4.675819	48.559132	30.235469	15.270605	-4.375243	61.650843	39.917605	8.767067	-8.873553	60.349222	40.210706
